<?xml version="1.0" encoding="utf-8"?>
<!-- Generator: Adobe Illustrator 17.0.0, SVG Export Plug-In . SVG Version: 6.00 Build 0)  -->
<!DOCTYPE svg PUBLIC "-//W3C//DTD SVG 1.1//EN" "http://www.w3.org/Graphics/SVG/1.1/DTD/svg11.dtd">
<svg version="1.1" id="Layer_1" xmlns="http://www.w3.org/2000/svg" xmlns:xlink="http://www.w3.org/1999/xlink" x="0px" y="0px"
	 width="13px" height="12.991px" viewBox="0 0 13 12.991" enable-background="new 0 0 13 12.991" xml:space="preserve">
<path fill="#A9A3A1" d="M6.505,4.007C7.17,4.008,7.704,3.473,7.704,2.806c0-0.663-0.533-1.196-1.197-1.197
	c-0.663,0-1.199,0.533-1.2,1.195C5.305,3.467,5.843,4.007,6.505,4.007 M5.399,7.934c0.001,0,0.002,0,0.003,0
	c0,0.782,0,1.563,0.001,2.345c0,0.08,0.003,0.162,0.014,0.241c0.045,0.331,0.214,0.576,0.517,0.723
	c0.185,0.09,0.381,0.131,0.586,0.131c0.384,0,0.691-0.159,0.919-0.467c0.129-0.174,0.191-0.374,0.191-0.592
	c-0.001-0.327-0.007-0.653-0.006-0.98c0.001-1.253,0.003-2.506,0.005-3.759c0-0.035,0-0.07-0.001-0.105
	C7.62,5.277,7.573,5.091,7.453,4.936C7.164,4.563,6.788,4.394,6.314,4.477C6.097,4.515,5.899,4.6,5.737,4.754
	C5.505,4.975,5.398,5.248,5.399,5.567C5.4,6.356,5.399,7.145,5.399,7.934 M6.286,0h0.44C6.744,0.003,6.762,0.007,6.78,0.009
	C6.926,0.02,7.073,0.028,7.219,0.043c0.38,0.038,0.753,0.114,1.12,0.222c0.852,0.252,1.621,0.661,2.305,1.228
	c0.719,0.596,1.286,1.314,1.697,2.153c0.425,0.869,0.641,1.788,0.658,2.754c0.007,0.382-0.023,0.762-0.084,1.14
	c-0.083,0.512-0.224,1.008-0.428,1.486c-0.45,1.057-1.13,1.939-2.044,2.635c-1.109,0.846-2.366,1.283-3.76,1.327
	c-0.521,0.017-1.037-0.032-1.546-0.141c-0.612-0.131-1.194-0.345-1.742-0.646c-1.004-0.551-1.811-1.312-2.414-2.286
	C0.389,8.96,0.072,7.918,0.019,6.796C0.016,6.729,0.007,6.661,0,6.594V6.396c0.003-0.021,0.008-0.043,0.009-0.064
	c0.015-0.19,0.027-0.381,0.045-0.57C0.084,5.46,0.141,5.163,0.216,4.87C0.399,4.161,0.693,3.501,1.1,2.892
	C1.671,2.041,2.401,1.36,3.291,0.853c0.911-0.52,1.893-0.798,2.942-0.844C6.25,0.008,6.268,0.003,6.286,0"/>
</svg>
