<?xml version="1.0" encoding="utf-8"?>
<!-- Generator: Adobe Illustrator 16.0.0, SVG Export Plug-In . SVG Version: 6.00 Build 0)  -->
<!DOCTYPE svg PUBLIC "-//W3C//DTD SVG 1.1//EN" "http://www.w3.org/Graphics/SVG/1.1/DTD/svg11.dtd">
<svg version="1.1" id="Layer_1" xmlns="http://www.w3.org/2000/svg" xmlns:xlink="http://www.w3.org/1999/xlink" x="0px" y="0px"
	 width="12.703px" height="13.548px" viewBox="0 0 12.703 13.548" enable-background="new 0 0 12.703 13.548" xml:space="preserve">
<g>
	<defs>
		<rect id="SVGID_1_" width="12.703" height="13.548"/>
	</defs>
	<clipPath id="SVGID_2_">
		<use xlink:href="#SVGID_1_"  overflow="visible"/>
	</clipPath>
	<path clip-path="url(#SVGID_2_)" fill="#d5d5d5" d="M1.323,0C2.279,0.182,3.065,0.738,3.9,1.183
		C5.656,2.117,7.401,3.074,9.152,4.02c0.102,0.054,0.126,0.081,0.03,0.176C8.547,4.824,7.916,5.461,7.287,6.097
		C7.227,6.158,7.192,6.173,7.123,6.103C5.094,4.066,3.063,2.033,1.032,0H1.323z"/>
	<path clip-path="url(#SVGID_2_)" fill="#d5d5d5" d="M0,6.775C0,5.064,0,3.354,0.001,1.644c0-0.362,0.042-0.721,0.188-1.059
		c0.065-0.151,0.067-0.15,0.184-0.033c2.042,2.041,4.084,4.083,6.129,6.122C6.589,6.761,6.584,6.803,6.5,6.886
		c-2.049,2.041-4.097,4.083-6.141,6.129c-0.097,0.097-0.123,0.061-0.164-0.036c-0.149-0.342-0.194-0.703-0.194-1.07
		C0,10.506,0,9.104,0,7.702C0,7.393,0,7.085,0,6.775"/>
	<path clip-path="url(#SVGID_2_)" fill="#d5d5d5" d="M1.028,13.543c0.185-0.182,0.346-0.338,0.505-0.497
		c1.854-1.855,3.708-3.712,5.559-5.571c0.09-0.091,0.133-0.091,0.223,0C7.936,8.108,8.561,8.735,9.189,9.36
		c0.078,0.078,0.076,0.107-0.022,0.161C7.033,10.673,4.9,11.83,2.766,12.983c-0.402,0.217-0.808,0.433-1.263,0.523
		C1.358,13.536,1.211,13.558,1.028,13.543"/>
	<path clip-path="url(#SVGID_2_)" fill="#d5d5d5" d="M12.703,6.825c-0.016,0.394-0.246,0.709-0.557,0.982
		c-0.383,0.336-0.84,0.546-1.279,0.79c-0.238,0.132-0.48,0.259-0.718,0.393C10.086,9.026,10.045,9.024,9.99,8.97
		C9.285,8.261,8.578,7.554,7.868,6.848C7.812,6.793,7.819,6.765,7.871,6.714c0.707-0.708,1.41-1.419,2.115-2.128
		c0.037-0.037,0.066-0.082,0.133-0.043c0.61,0.351,1.258,0.638,1.834,1.046c0.262,0.184,0.486,0.406,0.631,0.699
		C12.662,6.444,12.703,6.609,12.703,6.825"/>
</g>
</svg>
