<?xml version="1.0" encoding="utf-8"?>
<!-- Generator: Adobe Illustrator 16.0.0, SVG Export Plug-In . SVG Version: 6.00 Build 0)  -->
<!DOCTYPE svg PUBLIC "-//W3C//DTD SVG 1.1//EN" "http://www.w3.org/Graphics/SVG/1.1/DTD/svg11.dtd">
<svg version="1.1" id="Layer_1" xmlns="http://www.w3.org/2000/svg" xmlns:xlink="http://www.w3.org/1999/xlink" x="0px" y="0px"
	 width="13.127px" height="14px" viewBox="0 0 13.127 14" enable-background="new 0 0 13.127 14" xml:space="preserve">
<g>
	<defs>
		<rect id="SVGID_1_" width="13.127" height="14"/>
	</defs>
	<clipPath id="SVGID_2_">
		<use xlink:href="#SVGID_1_"  overflow="visible"/>
	</clipPath>
	<path clip-path="url(#SVGID_2_)" fill="#CCCCCC" d="M1.368,0c0.988,0.188,1.8,0.764,2.663,1.223
		c1.815,0.966,3.617,1.954,5.426,2.932C9.562,4.21,9.588,4.238,9.488,4.335C8.832,4.986,8.181,5.643,7.531,6.301
		c-0.063,0.064-0.098,0.078-0.17,0.006C5.265,4.203,3.166,2.102,1.066,0H1.368z"/>
	<path clip-path="url(#SVGID_2_)" fill="#CCCCCC" d="M0,7.002C0,5.234,0,3.467,0.001,1.699c0-0.376,0.043-0.745,0.194-1.094
		c0.068-0.156,0.07-0.156,0.19-0.035c2.111,2.109,4.22,4.22,6.334,6.327C6.808,6.986,6.803,7.03,6.717,7.116
		c-2.118,2.107-4.234,4.219-6.346,6.333c-0.1,0.1-0.127,0.062-0.17-0.037c-0.153-0.354-0.2-0.727-0.2-1.107
		C0,10.856,0,9.408,0,7.959C0,7.64,0,7.321,0,7.002"/>
	<path clip-path="url(#SVGID_2_)" fill="#CCCCCC" d="M1.062,13.995c0.191-0.188,0.358-0.351,0.522-0.514
		C3.5,11.563,5.417,9.646,7.328,7.725c0.093-0.094,0.138-0.094,0.23,0c0.641,0.653,1.288,1.303,1.937,1.948
		c0.08,0.08,0.079,0.111-0.022,0.166c-2.206,1.191-4.408,2.386-6.614,3.577c-0.416,0.225-0.834,0.448-1.305,0.542
		C1.403,13.988,1.251,14.01,1.062,13.995"/>
	<path clip-path="url(#SVGID_2_)" fill="#CCCCCC" d="M13.127,7.054c-0.016,0.406-0.255,0.731-0.576,1.015
		c-0.394,0.346-0.867,0.564-1.32,0.816c-0.246,0.137-0.496,0.268-0.742,0.405c-0.066,0.037-0.108,0.035-0.164-0.021
		c-0.729-0.733-1.46-1.464-2.193-2.193C8.073,7.02,8.08,6.99,8.133,6.938c0.73-0.732,1.459-1.466,2.188-2.199
		c0.037-0.038,0.068-0.084,0.137-0.044c0.63,0.363,1.299,0.659,1.895,1.08c0.271,0.191,0.502,0.422,0.651,0.724
		C13.083,6.659,13.127,6.83,13.127,7.054"/>
</g>
</svg>
