<?xml version="1.0" encoding="utf-8"?>
<!-- Generator: Adobe Illustrator 17.0.0, SVG Export Plug-In . SVG Version: 6.00 Build 0)  -->
<!DOCTYPE svg PUBLIC "-//W3C//DTD SVG 1.1//EN" "http://www.w3.org/Graphics/SVG/1.1/DTD/svg11.dtd">
<svg version="1.1" id="Layer_1" xmlns="http://www.w3.org/2000/svg" xmlns:xlink="http://www.w3.org/1999/xlink" x="0px" y="0px"
	 width="9.079px" height="19.436px" viewBox="0 0 9.079 19.436" enable-background="new 0 0 9.079 19.436" xml:space="preserve">
<path fill="#FFFFFF" d="M9.074,0c-0.003,0.062-0.01,0.123-0.01,0.185C9.063,1.183,9.061,2.182,9.067,3.18
	c0.001,0.139-0.041,0.174-0.175,0.173c-0.543-0.006-1.087-0.005-1.63,0.005C7.078,3.361,6.892,3.39,6.709,3.424
	C6.367,3.489,6.117,3.767,6.103,4.152c-0.027,0.703-0.024,1.406-0.036,2.11C6.065,6.39,6.15,6.368,6.225,6.368
	c0.884,0.001,1.769,0,2.653,0h0.201C8.96,7.497,8.844,8.6,8.726,9.715H6.071v0.209c-0.001,3.114-0.002,6.228-0.004,9.341
	c0,0.057-0.003,0.114-0.005,0.171H2.43c0.001-0.29,0.003-0.58,0.003-0.869c0-2.867,0-5.734,0.001-8.6V9.719H0.013
	C0.009,9.651,0.004,9.601,0.004,9.551C0.003,8.547,0.006,7.543,0,6.54c-0.001-0.139,0.041-0.175,0.176-0.173
	c0.693,0.006,1.387-0.002,2.08,0.005c0.148,0.002,0.179-0.047,0.18-0.186c0.004-0.9,0-1.8,0.032-2.7
	c0.023-0.654,0.16-1.291,0.464-1.882c0.333-0.65,0.851-1.092,1.539-1.31C4.852,0.172,5.256,0.12,5.649,0.037
	C5.704,0.025,5.759,0.012,5.814,0H9.074z"/>
</svg>
