<?xml version="1.0" encoding="utf-8"?>
<!-- Generator: Adobe Illustrator 16.0.0, SVG Export Plug-In . SVG Version: 6.00 Build 0)  -->
<!DOCTYPE svg PUBLIC "-//W3C//DTD SVG 1.1//EN" "http://www.w3.org/Graphics/SVG/1.1/DTD/svg11.dtd">
<svg version="1.1" id="Layer_1" xmlns="http://www.w3.org/2000/svg" xmlns:xlink="http://www.w3.org/1999/xlink" x="0px" y="0px"
	 width="15.543px" height="15.543px" viewBox="0 0 15.543 15.543" enable-background="new 0 0 15.543 15.543" xml:space="preserve">
<g>
	<defs>
		<rect id="SVGID_1_" width="15.543" height="15.543"/>
	</defs>
	<clipPath id="SVGID_2_">
		<use xlink:href="#SVGID_1_"  overflow="visible"/>
	</clipPath>
	<path clip-path="url(#SVGID_2_)" fill="#4267B2" d="M15.543,2.591c0-1.361-1.229-2.59-2.59-2.59H2.591C1.229,0.001,0,1.229,0,2.591
		v10.362c0,1.36,1.229,2.59,2.591,2.59h5.181V9.672h-1.9V7.081h1.9v-1.01c0-1.74,1.306-3.308,2.914-3.308h2.094v2.59h-2.094
		c-0.229,0-0.496,0.279-0.496,0.695v1.032h2.59v2.591h-2.59v5.871h2.764c1.361,0,2.59-1.229,2.59-2.59V2.591z"/>
</g>
</svg>
