<?xml version="1.0" encoding="utf-8"?>
<!-- Generator: Adobe Illustrator 16.0.0, SVG Export Plug-In . SVG Version: 6.00 Build 0)  -->
<!DOCTYPE svg PUBLIC "-//W3C//DTD SVG 1.1//EN" "http://www.w3.org/Graphics/SVG/1.1/DTD/svg11.dtd">
<svg version="1.1" id="Layer_1" xmlns="http://www.w3.org/2000/svg" xmlns:xlink="http://www.w3.org/1999/xlink" x="0px" y="0px"
	 width="13px" height="13px" viewBox="0 0 13 13" enable-background="new 0 0 13 13" xml:space="preserve">
<g>
	<defs>
		<rect id="SVGID_1_" width="13" height="13"/>
	</defs>
	<clipPath id="SVGID_2_">
		<use xlink:href="#SVGID_1_"  overflow="visible"/>
	</clipPath>
	<path clip-path="url(#SVGID_2_)" fill="#CCCCCC" d="M13,2.167C13,1.028,11.973,0,10.833,0H2.167C1.028,0,0,1.028,0,2.167v8.667
		C0,11.972,1.028,13,2.167,13H6.5V8.089H4.911V5.923H6.5V5.077c0-1.454,1.093-2.766,2.438-2.766h1.752v2.166H8.938
		c-0.191,0-0.416,0.233-0.416,0.582v0.863h2.168v2.166H8.521V13h2.312C11.973,13,13,11.972,13,10.834V2.167z"/>
</g>
</svg>
