<?xml version="1.0" encoding="utf-8"?>
<!-- Generator: Adobe Illustrator 16.0.0, SVG Export Plug-In . SVG Version: 6.00 Build 0)  -->
<!DOCTYPE svg PUBLIC "-//W3C//DTD SVG 1.1//EN" "http://www.w3.org/Graphics/SVG/1.1/DTD/svg11.dtd">
<svg version="1.1" id="Layer_1" xmlns="http://www.w3.org/2000/svg" xmlns:xlink="http://www.w3.org/1999/xlink" x="0px" y="0px"
	 width="13px" height="11.417px" viewBox="0 0 13 11.417" enable-background="new 0 0 13 11.417" xml:space="preserve">
<g>
	<defs>
		<rect id="SVGID_1_" width="13" height="11.417"/>
	</defs>
	<clipPath id="SVGID_2_">
		<use xlink:href="#SVGID_1_"  overflow="visible"/>
	</clipPath>
	<path clip-path="url(#SVGID_2_)" fill="#CCCCCC" d="M4.209,6.116c0.457,0,0.913-0.005,1.37,0.002
		c0.285,0.004,0.533-0.062,0.527-0.396c-0.005-0.309-0.24-0.374-0.512-0.372c-0.926,0.005-1.852,0.005-2.778,0
		C2.544,5.35,2.313,5.416,2.308,5.727C2.302,6.034,2.525,6.12,2.801,6.117C3.27,6.112,3.74,6.116,4.209,6.116 M5.736,3.06
		c0.953,0,1.906-0.003,2.859,0.002c0.291,0.001,0.572-0.032,0.567-0.396C9.158,2.331,8.891,2.292,8.613,2.293
		c-1.919,0.004-3.838,0.004-5.756,0C2.578,2.292,2.312,2.331,2.309,2.668C2.305,3.031,2.588,3.062,2.877,3.062
		C3.83,3.057,4.783,3.06,5.736,3.06 M6.509,3.823c-1.221,0-2.441,0.003-3.662-0.002C2.566,3.82,2.308,3.869,2.308,4.206
		c0.001,0.336,0.26,0.384,0.541,0.383c2.428-0.003,4.856-0.003,7.284,0c0.275,0.001,0.546-0.03,0.557-0.365
		c0.014-0.362-0.265-0.403-0.558-0.402C8.924,3.826,7.716,3.823,6.509,3.823 M2.297,8.408c-0.276,0-0.514,0.005-0.753-0.001
		c-0.872-0.02-1.53-0.656-1.536-1.521c-0.011-1.782-0.01-3.564,0-5.347c0.004-0.871,0.653-1.532,1.52-1.534
		c3.309-0.008,6.619-0.008,9.927-0.001c0.871,0.002,1.531,0.653,1.537,1.52c0.011,1.782,0.01,3.562,0,5.345
		c-0.006,0.886-0.666,1.532-1.56,1.537C9.779,8.414,8.124,8.4,6.47,8.419C6.267,8.421,6.022,8.516,5.872,8.65
		c-0.937,0.842-1.846,1.715-2.782,2.559c-0.139,0.126-0.411,0.25-0.545,0.194c-0.133-0.056-0.231-0.34-0.237-0.527
		C2.283,10.075,2.297,9.273,2.297,8.408"/>
</g>
</svg>
