<?xml version="1.0" encoding="utf-8"?>
<!-- Generator: Adobe Illustrator 17.0.0, SVG Export Plug-In . SVG Version: 6.00 Build 0)  -->
<!DOCTYPE svg PUBLIC "-//W3C//DTD SVG 1.1//EN" "http://www.w3.org/Graphics/SVG/1.1/DTD/svg11.dtd">
<svg version="1.1" id="Layer_1" xmlns="http://www.w3.org/2000/svg" xmlns:xlink="http://www.w3.org/1999/xlink" x="0px" y="0px"
	 width="18.302px" height="16.153px" viewBox="0 0 18.302 16.153" enable-background="new 0 0 18.302 16.153" xml:space="preserve">
<path fill="#FFFFFF" d="M4.811,15.717c0.557-0.013,1.077-0.085,1.576-0.275c0.664-0.253,1.233-0.629,1.574-1.279
	c0.434-0.829,0.199-1.729-0.595-2.222c-0.222-0.138-0.462-0.272-0.712-0.334c-0.919-0.23-1.845-0.436-2.772-0.63
	c-0.14-0.03-0.328,0.013-0.45,0.091c-0.551,0.352-1.028,0.788-1.345,1.37c-0.657,1.21-0.193,2.472,1.085,2.984
	C3.708,15.636,4.266,15.708,4.811,15.717 M7.152,3.967C7.151,3.053,7.003,2.331,6.686,1.744c-0.279-0.515-0.67-0.899-1.27-1.008
	C4.532,0.575,3.717,0.944,3.27,1.802c-0.709,1.359-0.792,2.785-0.268,4.23C3.199,6.574,3.554,7.01,4.082,7.27
	C5.001,7.722,6.1,7.331,6.633,6.375C7.05,5.625,7.15,4.807,7.152,3.967 M3.138,10.769c-0.468-0.177-0.918-0.33-1.353-0.518
	c-0.478-0.206-0.674-0.606-0.603-1.123c0.023-0.165,0.13-0.233,0.26-0.294c0.641-0.295,1.281-0.591,1.922-0.888
	c0.059-0.027,0.117-0.057,0.179-0.087C3.28,7.765,3.018,7.697,2.778,7.583c-1.342-0.641-2.016-1.885-1.85-3.386
	c0.214-1.934,1.49-3.373,3.376-3.798c0.773-0.175,1.547-0.104,2.325-0.012c0.502,0.059,1.011,0.07,1.517,0.081
	c0.6,0.013,1.2,0.003,1.8,0.003c0.049,0.224-0.007,0.31-0.217,0.342c-0.555,0.082-1.11,0.165-1.664,0.249
	c-0.032,0.005-0.062,0.017-0.112,0.03c0.108,0.134,0.213,0.249,0.301,0.376c0.475,0.687,0.668,1.458,0.653,2.283
	C8.885,4.99,8.454,6.047,7.475,6.842C6.791,7.397,5.988,7.677,5.132,7.833c-0.706,0.13-1.366,0.399-2.004,0.721
	C3,8.619,2.881,8.708,2.773,8.804C2.527,9.025,2.544,9.237,2.842,9.375C3.097,9.494,3.368,9.598,3.643,9.65
	c0.927,0.175,1.859,0.323,2.788,0.481c0.717,0.123,1.428,0.264,2.1,0.555c1.229,0.532,1.554,1.537,1.196,2.715
	c-0.255,0.842-0.854,1.41-1.59,1.846c-0.875,0.518-1.838,0.759-2.839,0.855c-1.085,0.104-2.164,0.059-3.223-0.224
	c-0.514-0.137-0.998-0.342-1.413-0.687c-0.829-0.689-0.887-1.833-0.133-2.601c0.552-0.563,1.23-0.952,1.885-1.372
	C2.651,11.065,2.893,10.92,3.138,10.769"/>
<polygon fill="#FFFFFF" points="13.954,3.271 13.954,0 15.047,0 15.047,3.255 18.302,3.255 18.302,4.349 15.058,4.349 15.058,7.616 
	13.957,7.616 13.957,4.353 10.705,4.353 10.705,3.271 "/>
</svg>
