<?xml version="1.0" encoding="utf-8"?>
<!-- Generator: Adobe Illustrator 16.0.0, SVG Export Plug-In . SVG Version: 6.00 Build 0)  -->
<!DOCTYPE svg PUBLIC "-//W3C//DTD SVG 1.1//EN" "http://www.w3.org/Graphics/SVG/1.1/DTD/svg11.dtd">
<svg version="1.1" id="Layer_1" xmlns="http://www.w3.org/2000/svg" xmlns:xlink="http://www.w3.org/1999/xlink" x="0px" y="0px"
	 width="16.156px" height="19.933px" viewBox="0 0 16.156 19.933" enable-background="new 0 0 16.156 19.933" xml:space="preserve">
<g>
	<defs>
		<rect id="SVGID_1_" width="16.156" height="19.933"/>
	</defs>
	<clipPath id="SVGID_2_">
		<use xlink:href="#SVGID_1_"  overflow="visible"/>
	</clipPath>
	<g clip-path="url(#SVGID_2_)">
		<defs>
			<rect id="SVGID_3_" width="16.156" height="19.933"/>
		</defs>
		<clipPath id="SVGID_4_">
			<use xlink:href="#SVGID_3_"  overflow="visible"/>
		</clipPath>
		<g opacity="0.8" clip-path="url(#SVGID_4_)">
			<g>
				<defs>
					<rect id="SVGID_5_" x="-17" y="-15" width="50.156" height="35.933"/>
				</defs>
				<clipPath id="SVGID_6_">
					<use xlink:href="#SVGID_5_"  overflow="visible"/>
				</clipPath>
				<path clip-path="url(#SVGID_6_)" fill="#FFFFFF" d="M10.834,0.001c0.035,0.184,0.038,0.358,0.027,0.534
					c-0.075,1.159-0.539,2.143-1.352,2.963c-0.465,0.468-1.019,0.8-1.656,0.984C7.563,4.566,7.265,4.606,6.962,4.592
					c-0.03-0.001-0.06-0.008-0.096-0.013C6.86,4.532,6.852,4.492,6.849,4.452C6.807,3.937,6.889,3.438,7.07,2.955
					c0.54-1.437,1.553-2.375,3.015-2.834C10.32,0.047,10.631-0.009,10.834,0.001"/>
				<path clip-path="url(#SVGID_6_)" fill="#FFFFFF" d="M15.645,6.788c-0.047,0.032-0.088,0.062-0.129,0.092
					c-0.594,0.411-1.082,0.922-1.444,1.548c-0.313,0.543-0.498,1.127-0.546,1.753c-0.066,0.853,0.072,1.667,0.468,2.429
					c0.372,0.718,0.918,1.277,1.601,1.705c0.149,0.094,0.309,0.171,0.463,0.255c0.033,0.018,0.064,0.033,0.096,0.049
					c0.016,0.076-0.021,0.138-0.042,0.199c-0.257,0.754-0.589,1.475-1.002,2.156c-0.329,0.541-0.693,1.06-1.087,1.557
					c-0.187,0.237-0.389,0.459-0.613,0.661c-0.186,0.167-0.387,0.316-0.605,0.437c-0.394,0.214-0.813,0.302-1.261,0.276
					c-0.329-0.019-0.646-0.093-0.952-0.215c-0.197-0.079-0.393-0.164-0.588-0.248c-0.307-0.13-0.621-0.232-0.953-0.283
					c-0.283-0.042-0.568-0.053-0.854-0.033c-0.445,0.03-0.869,0.143-1.279,0.313c-0.201,0.084-0.401,0.17-0.604,0.251
					c-0.251,0.102-0.509,0.175-0.778,0.216c-0.461,0.07-0.899,0.008-1.312-0.215c-0.286-0.154-0.541-0.35-0.771-0.576
					c-0.133-0.131-0.266-0.264-0.385-0.406c-0.609-0.727-1.157-1.494-1.602-2.333c-0.619-1.168-1.047-2.404-1.289-3.704
					c-0.147-0.789-0.205-1.586-0.16-2.389c0.051-0.909,0.244-1.788,0.651-2.609c0.491-0.993,1.215-1.767,2.2-2.281
					C3.594,5.01,4.369,4.827,5.192,4.869C5.5,4.885,5.797,4.958,6.091,5.046c0.343,0.104,0.674,0.242,1.008,0.371
					C7.302,5.496,7.507,5.569,7.713,5.64c0.336,0.115,0.673,0.116,1.008-0.007C8.92,5.56,9.12,5.486,9.319,5.413
					c0.321-0.119,0.64-0.244,0.964-0.356c0.646-0.224,1.311-0.302,1.994-0.224c0.701,0.081,1.359,0.278,1.969,0.636
					c0.523,0.307,0.96,0.707,1.316,1.196C15.59,6.701,15.614,6.741,15.645,6.788"/>
			</g>
		</g>
	</g>
</g>
</svg>
