<?xml version="1.0" encoding="utf-8"?>
<!-- Generator: Adobe Illustrator 16.0.0, SVG Export Plug-In . SVG Version: 6.00 Build 0)  -->
<!DOCTYPE svg PUBLIC "-//W3C//DTD SVG 1.1//EN" "http://www.w3.org/Graphics/SVG/1.1/DTD/svg11.dtd">
<svg version="1.1" id="Layer_1" xmlns="http://www.w3.org/2000/svg" xmlns:xlink="http://www.w3.org/1999/xlink" x="0px" y="0px"
	 width="11.632px" height="14.351px" viewBox="0 0 11.632 14.351" enable-background="new 0 0 11.632 14.351" xml:space="preserve">
<g>
	<defs>
		<rect id="SVGID_1_" width="11.632" height="14.351"/>
	</defs>
	<clipPath id="SVGID_2_">
		<use xlink:href="#SVGID_1_"  overflow="visible"/>
	</clipPath>
	<path clip-path="url(#SVGID_2_)" fill="#808080" d="M7.801,0c0.025,0.132,0.027,0.258,0.02,0.384
		C7.766,1.219,7.432,1.928,6.847,2.518C6.512,2.854,6.114,3.094,5.655,3.226c-0.209,0.062-0.424,0.09-0.642,0.08
		C4.991,3.305,4.97,3.3,4.943,3.296c-0.005-0.033-0.01-0.062-0.012-0.091C4.9,2.833,4.96,2.474,5.091,2.127
		c0.389-1.035,1.118-1.71,2.17-2.041C7.431,0.033,7.654-0.007,7.801,0"/>
	<path clip-path="url(#SVGID_2_)" fill="#808080" d="M11.265,4.886C11.23,4.91,11.201,4.932,11.17,4.952
		c-0.426,0.296-0.777,0.664-1.039,1.115c-0.226,0.39-0.358,0.811-0.394,1.262c-0.047,0.614,0.052,1.2,0.337,1.749
		c0.27,0.517,0.662,0.919,1.153,1.229c0.106,0.066,0.222,0.121,0.334,0.183c0.022,0.012,0.046,0.024,0.067,0.035
		c0.012,0.055-0.015,0.099-0.029,0.144c-0.186,0.543-0.424,1.062-0.723,1.552c-0.236,0.391-0.498,0.764-0.781,1.121
		c-0.135,0.17-0.28,0.331-0.442,0.477c-0.134,0.12-0.276,0.227-0.437,0.313c-0.282,0.154-0.584,0.218-0.906,0.199
		c-0.238-0.013-0.466-0.066-0.686-0.155c-0.143-0.057-0.283-0.117-0.424-0.178c-0.221-0.094-0.448-0.168-0.686-0.204
		C6.312,13.764,6.106,13.755,5.9,13.77c-0.32,0.021-0.626,0.103-0.921,0.226c-0.145,0.061-0.289,0.122-0.434,0.181
		c-0.181,0.072-0.367,0.126-0.561,0.155c-0.332,0.05-0.647,0.005-0.945-0.155c-0.206-0.11-0.389-0.252-0.555-0.415
		c-0.096-0.094-0.191-0.189-0.277-0.293c-0.438-0.522-0.833-1.075-1.153-1.679c-0.446-0.841-0.754-1.73-0.929-2.667
		C0.021,8.553-0.021,7.98,0.011,7.403c0.037-0.656,0.176-1.288,0.469-1.88c0.354-0.715,0.875-1.271,1.584-1.643
		c0.524-0.274,1.082-0.405,1.675-0.376C3.96,3.517,4.174,3.568,4.386,3.632c0.247,0.075,0.485,0.175,0.726,0.268
		c0.146,0.057,0.294,0.109,0.442,0.161c0.242,0.082,0.484,0.083,0.725-0.007C6.422,4.002,6.566,3.949,6.71,3.896
		C6.941,3.812,7.17,3.721,7.403,3.641C7.869,3.479,8.347,3.422,8.84,3.479c0.505,0.058,0.979,0.201,1.418,0.458
		c0.375,0.22,0.691,0.509,0.947,0.859C11.226,4.824,11.242,4.854,11.265,4.886"/>
</g>
</svg>
