<?xml version="1.0" encoding="utf-8"?>
<!-- Generator: Adobe Illustrator 16.0.0, SVG Export Plug-In . SVG Version: 6.00 Build 0)  -->
<!DOCTYPE svg PUBLIC "-//W3C//DTD SVG 1.1//EN" "http://www.w3.org/Graphics/SVG/1.1/DTD/svg11.dtd">
<svg version="1.1" id="Layer_1" xmlns="http://www.w3.org/2000/svg" xmlns:xlink="http://www.w3.org/1999/xlink" x="0px" y="0px"
	 width="11.348px" height="14px" viewBox="0 0 11.348 14" enable-background="new 0 0 11.348 14" xml:space="preserve">
<g>
	<defs>
		<rect id="SVGID_1_" width="11.348" height="14"/>
	</defs>
	<clipPath id="SVGID_2_">
		<use xlink:href="#SVGID_1_"  overflow="visible"/>
	</clipPath>
	<path clip-path="url(#SVGID_2_)" fill="#CCCCCC" d="M7.609,0.001c0.025,0.128,0.027,0.252,0.02,0.375
		C7.576,1.189,7.25,1.882,6.679,2.457c-0.326,0.329-0.715,0.562-1.162,0.69C5.312,3.207,5.103,3.234,4.89,3.226
		C4.869,3.225,4.848,3.22,4.823,3.217c-0.005-0.033-0.01-0.061-0.012-0.09c-0.03-0.362,0.028-0.713,0.155-1.051
		c0.38-1.011,1.091-1.668,2.118-1.991C7.248,0.033,7.467-0.006,7.609,0.001"/>
	<path clip-path="url(#SVGID_2_)" fill="#CCCCCC" d="M10.988,4.768c-0.033,0.022-0.062,0.044-0.092,0.064
		c-0.417,0.288-0.759,0.647-1.013,1.087C9.662,6.301,9.533,6.71,9.5,7.15C9.453,7.749,9.551,8.321,9.828,8.856
		c0.262,0.505,0.646,0.896,1.125,1.198c0.104,0.065,0.217,0.12,0.324,0.179c0.023,0.012,0.045,0.023,0.067,0.034
		c0.011,0.054-0.015,0.097-0.029,0.14c-0.181,0.53-0.414,1.036-0.704,1.515c-0.23,0.381-0.486,0.744-0.763,1.094
		c-0.131,0.166-0.274,0.323-0.433,0.464c-0.129,0.118-0.27,0.222-0.424,0.306c-0.276,0.151-0.572,0.213-0.886,0.195
		c-0.231-0.013-0.454-0.065-0.668-0.151c-0.139-0.056-0.276-0.115-0.414-0.174c-0.215-0.091-0.436-0.164-0.669-0.199
		c-0.199-0.029-0.399-0.037-0.599-0.023c-0.313,0.021-0.611,0.101-0.899,0.221c-0.141,0.059-0.282,0.119-0.424,0.176
		c-0.176,0.071-0.358,0.123-0.547,0.152c-0.324,0.049-0.631,0.005-0.921-0.151c-0.201-0.107-0.38-0.246-0.542-0.404
		c-0.093-0.093-0.186-0.186-0.27-0.286c-0.428-0.51-0.813-1.049-1.125-1.639c-0.435-0.82-0.736-1.688-0.906-2.602
		C0.02,8.346-0.021,7.785,0.011,7.223C0.046,6.582,0.182,5.967,0.468,5.39c0.345-0.698,0.853-1.24,1.545-1.604
		C2.523,3.519,3.068,3.391,3.646,3.42c0.217,0.012,0.425,0.062,0.632,0.124C4.52,3.617,4.751,3.715,4.986,3.805
		c0.143,0.055,0.287,0.107,0.432,0.156c0.236,0.08,0.472,0.081,0.707-0.005c0.141-0.052,0.281-0.103,0.421-0.154
		c0.226-0.083,0.45-0.171,0.677-0.25c0.454-0.157,0.92-0.212,1.4-0.157c0.492,0.057,0.955,0.196,1.384,0.447
		c0.366,0.215,0.674,0.495,0.925,0.84C10.951,4.707,10.968,4.735,10.988,4.768"/>
</g>
</svg>
