<?xml version="1.0" encoding="utf-8"?>
<!-- Generator: Adobe Illustrator 17.0.0, SVG Export Plug-In . SVG Version: 6.00 Build 0)  -->
<!DOCTYPE svg PUBLIC "-//W3C//DTD SVG 1.1//EN" "http://www.w3.org/Graphics/SVG/1.1/DTD/svg11.dtd">
<svg version="1.1" id="Layer_1" xmlns="http://www.w3.org/2000/svg" xmlns:xlink="http://www.w3.org/1999/xlink" x="0px" y="0px"
	 width="960px" height="560px" viewBox="0 0 960 560" enable-background="new 0 0 960 560" xml:space="preserve">
<rect x="185.8" y="85.312" fill="#378689" width="23" height="23"/>
<polygon fill="#FFFFFF" points="193.001,103.102 201.598,103.102 201.598,101.199 195.203,101.199 195.203,90.523 193.001,90.523 
	"/>
<rect x="210.8" y="85.312" fill="#378689" width="23" height="23"/>
<polygon fill="#FFFFFF" points="217.209,92.426 221.19,92.426 221.19,103.102 223.393,103.102 223.393,92.426 227.392,92.426 
	227.392,90.523 217.209,90.523 "/>
<rect x="235.8" y="85.312" fill="#378689" width="23" height="23"/>
<polygon fill="#FFFFFF" points="246.023,103.102 248.472,103.102 252.77,90.523 250.533,90.523 247.309,100.477 247.274,100.477 
	244.12,90.523 241.83,90.523 "/>
</svg>
