<?xml version="1.0" encoding="utf-8"?>
<!-- Generator: Adobe Illustrator 16.0.0, SVG Export Plug-In . SVG Version: 6.00 Build 0)  -->
<!DOCTYPE svg PUBLIC "-//W3C//DTD SVG 1.1//EN" "http://www.w3.org/Graphics/SVG/1.1/DTD/svg11.dtd">
<svg version="1.1" id="Layer_1" xmlns="http://www.w3.org/2000/svg" xmlns:xlink="http://www.w3.org/1999/xlink" x="0px" y="0px"
	 width="160.294px" height="28.242px" viewBox="0 0 160.294 28.242" enable-background="new 0 0 160.294 28.242"
	 xml:space="preserve">
<g>
	<g>
		<defs>
			<rect id="SVGID_1_" width="160.294" height="28.242"/>
		</defs>
		<clipPath id="SVGID_2_">
			<use xlink:href="#SVGID_1_"  overflow="visible"/>
		</clipPath>
		<path clip-path="url(#SVGID_2_)" fill="#FFFFFF" d="M147.672,17.286c0.092,3.706,2.807,5.646,6.42,5.646
			c2.778,0,6.202-0.954,6.202-4.381c0-3.334-2.467-4.076-5.616-4.662c-2.563-0.556-5.281-0.957-5.281-3.488
			c0-2.255,2.408-3.058,4.57-3.058c2.656,0,4.663,1.173,4.694,4.045h1.169c0-3.612-2.497-5.06-5.863-5.06
			c-2.687,0-5.74,0.922-5.74,4.072c0,3.241,2.715,3.951,5.463,4.508c2.718,0.556,5.435,0.957,5.435,3.643
			c0,2.748-2.964,3.366-5.032,3.366c-2.873,0-5.066-1.698-5.25-4.632H147.672z M146.125,6.699h-3.458V1.76h-1.169v4.939h-2.932
			v1.015h2.932v11.085c-0.123,3.579,2.188,3.918,4.596,3.763v-1.015c-2.223,0.062-3.427-0.185-3.427-2.748V7.714h3.458V6.699z
			 M132.883,6.699h-1.17v15.862h1.17V13.89c0.122-2.379,0.616-3.367,1.789-4.57c1.42-1.39,3.149-1.697,4.385-1.543v-1.17
			c-2.871-0.124-5.465,1.539-6.082,3.608h-0.092V6.699z M115.564,14.631c0-3.798,2.131-7.287,6.115-7.287
			c3.982,0,6.113,3.489,6.113,7.287s-2.131,7.287-6.113,7.287C117.695,21.918,115.564,18.429,115.564,14.631 M114.395,14.631
			c0,4.508,2.621,8.302,7.285,8.302c4.662,0,7.282-3.794,7.282-8.302s-2.62-8.302-7.282-8.302
			C117.016,6.329,114.395,10.123,114.395,14.631 M99.42,6.699h-1.169v21.543h1.169v-8.979h0.062c0.926,2.562,3.148,3.67,5.773,3.67
			c4.848,0,7.129-3.454,7.129-8.269c0-4.479-2.25-8.335-7.129-8.335c-3.488,0-5.279,2.435-5.773,4.01H99.42V6.699z M105.256,21.918
			c-4.478,0-5.805-3.489-5.805-7.256c0-3.768,1.574-7.318,5.805-7.318c4.262,0,5.961,3.705,5.961,7.318
			C111.217,18.583,109.395,21.918,105.256,21.918 M94.48,6.82c-0.215-4.848-3.824-6.819-8.426-6.819
			c-3.488,0-7.406,1.632-7.406,5.862c0,4.198,3.763,5.094,7.5,5.865c3.767,0.772,7.533,1.42,7.533,5.156
			c0,3.829-3.735,5.033-6.391,5.033c-4.354,0-8.213-1.822-7.936-6.638h-1.354c-0.062,5.681,4.134,7.807,9.29,7.807
			c3.365,0,7.746-1.632,7.746-6.202c0-4.384-3.764-5.341-7.529-6.113C83.77,10,80.003,9.414,80.003,5.863
			c0-3.644,3.552-4.693,6.052-4.693c4.076,0,6.918,1.883,7.072,5.65H94.48z"/>
	</g>
	<rect fill="#378588" width="23" height="23"/>
	<polygon fill="#FFFFFF" points="7.201,17.79 15.798,17.79 15.798,15.887 9.403,15.887 9.403,5.211 7.201,5.211 	"/>
	<rect x="25" fill="#378588" width="22.999" height="23"/>
	<polygon fill="#FFFFFF" points="31.409,7.114 35.39,7.114 35.39,17.79 37.593,17.79 37.593,7.114 41.592,7.114 41.592,5.211 
		31.409,5.211 	"/>
	<rect x="50" fill="#378588" width="22.999" height="23"/>
	<polygon fill="#FFFFFF" points="60.223,17.79 62.672,17.79 66.97,5.211 64.733,5.211 61.509,15.165 61.474,15.165 58.32,5.211 
		56.03,5.211 	"/>
</g>
</svg>
