<?xml version="1.0" encoding="utf-8"?>
<!-- Generator: Adobe Illustrator 16.0.0, SVG Export Plug-In . SVG Version: 6.00 Build 0)  -->
<!DOCTYPE svg PUBLIC "-//W3C//DTD SVG 1.1 Tiny//EN" "http://www.w3.org/Graphics/SVG/1.1/DTD/svg11-tiny.dtd">
<svg version="1.1" baseProfile="tiny" id="Layer_1" xmlns="http://www.w3.org/2000/svg" xmlns:xlink="http://www.w3.org/1999/xlink"
	 x="0px" y="0px" width="13px" height="11.366px" viewBox="0 0 13 11.366" xml:space="preserve">
<g>
	<path fill="#CCCCCC" d="M9.744,10.118c0.003-1.067,0.001-2.133,0-3.199c0-0.029-0.006-0.06-0.01-0.097
		C9.342,7.234,8.96,7.634,8.582,8.039C8.55,8.072,8.539,8.138,8.539,8.188C8.536,8.771,8.537,9.355,8.537,9.939
		c0,0.195-0.023,0.219-0.219,0.219c-2.297,0-4.594,0-6.893,0c-0.189,0-0.213-0.023-0.213-0.211c0-2.053,0-4.105,0-6.157V3.647
		c0.065,0,0.111,0,0.157,0c0.47,0,0.94,0,1.409,0C3.31,3.646,3.65,3.306,3.651,2.773c0-0.475,0-0.948,0-1.422V1.21h0.133
		c1.515,0,3.03-0.001,4.545,0c0.183,0,0.208,0.025,0.208,0.215c0,0.64,0,1.278,0,1.917v0.135C8.602,3.45,8.641,3.414,8.669,3.373
		c0.054-0.076,0.095-0.161,0.153-0.231c0.232-0.285,0.457-0.578,0.709-0.847c0.164-0.177,0.242-0.358,0.217-0.6
		C9.723,1.444,9.754,1.184,9.704,0.938C9.586,0.364,9.091,0.003,8.466,0.002C6.71,0.001,4.954,0.004,3.198,0
		C2.897-0.001,2.651,0.099,2.437,0.312C1.738,1.007,1.033,1.696,0.329,2.385C0.192,2.52,0.055,2.649,0,2.84v7.439
		c0.008,0.015,0.019,0.029,0.022,0.045c0.145,0.674,0.596,1.042,1.282,1.042c2.395,0,4.79,0,7.184-0.001
		C9.21,11.365,9.742,10.837,9.744,10.118z"/>
	<path fill="#CCCCCC" d="M12.498,2.985c-0.07,0.101-0.137,0.204-0.212,0.3c-0.527,0.667-1.056,1.331-1.584,1.997
		c-0.129,0.162-0.259,0.324-0.384,0.488c-0.061,0.078-0.071,0.164-0.014,0.248c0.055,0.082,0.133,0.071,0.215,0.047
		c0.248-0.072,0.432-0.237,0.584-0.43C11.738,4.825,12.368,4.01,13,3.195V3.094c-0.043-0.051-0.081-0.108-0.13-0.152
		C12.716,2.801,12.618,2.814,12.498,2.985z"/>
	<path fill="#CCCCCC" d="M5.898,9.316C5.982,9.29,6.069,9.259,6.14,9.209c0.248-0.176,0.5-0.348,0.731-0.544
		c0.9-0.767,1.71-1.626,2.496-2.507c0.31-0.346,0.611-0.7,0.923-1.059c-0.435-0.36-0.856-0.71-1.282-1.063
		C8.982,4.063,8.962,4.083,8.943,4.105C8.182,5.05,7.453,6.021,6.787,7.036c-0.364,0.555-0.722,1.115-0.979,1.73
		C5.756,8.89,5.719,9.022,5.698,9.154C5.675,9.296,5.76,9.361,5.898,9.316z"/>
	<path fill="#CCCCCC" d="M10.637,4.673c0.436-0.545,0.879-1.084,1.303-1.639c0.179-0.233,0.33-0.49,0.465-0.753
		c0.066-0.128,0.093-0.292,0.087-0.437C12.482,1.607,12.3,1.469,12.124,1.34c-0.188-0.139-0.396-0.164-0.595-0.04
		c-0.174,0.108-0.35,0.228-0.489,0.376c-0.392,0.415-0.767,0.846-1.144,1.274C9.701,3.175,9.516,3.409,9.322,3.644
		c0.432,0.358,0.854,0.708,1.277,1.058C10.617,4.688,10.628,4.682,10.637,4.673z"/>
	<path fill="#CCCCCC" d="M2.441,4.633c0.006,0.161,0.005,0.322,0.001,0.482C2.438,5.229,2.487,5.273,2.6,5.273
		c1.486-0.002,2.971-0.001,4.457-0.003c0.035,0,0.082-0.006,0.102-0.028c0.079-0.096,0.174-0.186,0.15-0.332
		C7.297,4.836,7.307,4.758,7.307,4.682c0-0.199-0.012-0.211-0.205-0.211c-0.74,0-1.481,0-2.221,0c-0.757,0-1.515,0.001-2.272-0.001
		C2.49,4.469,2.438,4.512,2.441,4.633z"/>
	<path fill="#CCCCCC" d="M6.044,6.846c0.164-0.24,0.322-0.484,0.487-0.734C6.516,6.103,6.512,6.099,6.509,6.099
		c-1.31-0.001-2.621-0.002-3.931-0.003c-0.097,0-0.137,0.048-0.135,0.142c0.002,0.174,0.001,0.347,0,0.521
		c-0.001,0.095,0.041,0.14,0.137,0.14c1.12,0,2.24,0,3.361-0.002C5.976,6.896,6.025,6.873,6.044,6.846z"/>
	<path fill="#CCCCCC" d="M4.539,8.212C4.419,8.303,4.3,8.396,4.173,8.494C3.965,8.27,3.766,8.052,3.564,7.836
		C3.365,7.624,3.091,7.655,2.955,7.909c-0.157,0.294-0.313,0.59-0.459,0.89C2.462,8.87,2.447,8.963,2.457,9.041
		C2.478,9.2,2.597,9.308,2.753,9.33C2.906,9.35,3.03,9.291,3.108,9.159c0.089-0.152,0.166-0.311,0.268-0.503
		C3.416,8.714,3.44,8.754,3.47,8.788C3.598,8.93,3.726,9.07,3.857,9.209c0.151,0.159,0.334,0.173,0.511,0.044
		C4.44,9.2,4.515,9.149,4.577,9.088C4.723,8.94,4.87,8.868,5.044,9.043C5.049,9.047,5.06,9.046,5.062,9.046
		c0.075-0.229,0.149-0.455,0.226-0.692c-0.082-0.052-0.171-0.108-0.26-0.164C4.838,8.073,4.715,8.079,4.539,8.212z"/>
	<path fill="#CCCCCC" d="M5.041,2.836c0.35-0.003,0.701-0.001,1.052-0.001s0.702-0.003,1.052,0.001
		C7.266,2.838,7.312,2.789,7.309,2.67C7.303,2.506,7.305,2.341,7.307,2.176C7.309,2.082,7.27,2.032,7.172,2.032
		c-0.718,0.002-1.437,0.002-2.155,0c-0.095,0-0.138,0.046-0.137,0.141C4.882,2.342,4.884,2.511,4.879,2.68
		C4.876,2.796,4.928,2.837,5.041,2.836z"/>
</g>
</svg>
