<?xml version="1.0" encoding="utf-8"?>
<!-- Generator: Adobe Illustrator 16.0.0, SVG Export Plug-In . SVG Version: 6.00 Build 0)  -->
<!DOCTYPE svg PUBLIC "-//W3C//DTD SVG 1.1//EN" "http://www.w3.org/Graphics/SVG/1.1/DTD/svg11.dtd">
<svg version="1.1" id="Layer_1" xmlns="http://www.w3.org/2000/svg" xmlns:xlink="http://www.w3.org/1999/xlink" x="0px" y="0px"
	 width="15.535px" height="15.543px" viewBox="0 0 15.535 15.543" enable-background="new 0 0 15.535 15.543" xml:space="preserve">
<g>
	<defs>
		<rect id="SVGID_1_" width="15.535" height="15.543"/>
	</defs>
	<clipPath id="SVGID_2_">
		<use xlink:href="#SVGID_1_"  overflow="visible"/>
	</clipPath>
	<path clip-path="url(#SVGID_2_)" fill="#1DA1F2" d="M12.491,4.843c-0.259,0.388-0.588,0.729-0.966,1.002
		c0.004,0.083,0.006,0.167,0.006,0.252c0,2.56-1.95,5.514-5.516,5.514c-1.095,0-2.114-0.318-2.972-0.872
		c0.153,0.02,0.307,0.029,0.463,0.029c0.909,0,1.744-0.31,2.408-0.83C5.066,9.921,4.35,9.36,4.104,8.591
		c0.117,0.022,0.238,0.035,0.364,0.035c0.175,0,0.348-0.023,0.51-0.068c-0.886-0.177-1.556-0.96-1.556-1.9
		c0-0.008,0-0.016,0.002-0.024c0.26,0.146,0.56,0.231,0.878,0.242c-0.52-0.347-0.863-0.94-0.863-1.613
		c0-0.355,0.096-0.688,0.262-0.975c0.956,1.174,2.385,1.945,3.995,2.026C7.663,6.171,7.647,6.023,7.647,5.87
		c0-1.069,0.867-1.937,1.937-1.937c0.559,0,1.062,0.235,1.415,0.61c0.442-0.085,0.858-0.246,1.231-0.471
		c-0.145,0.454-0.451,0.833-0.853,1.074C11.771,5.101,12.145,4.996,12.491,4.843 M15.535,12.468V3.075c0,0,0-3.074-3.076-3.074
		H3.075c0,0-3.075,0-3.075,3.074v9.393c0,0,0,3.075,3.075,3.075h9.384C12.459,15.543,15.535,15.543,15.535,12.468"/>
</g>
</svg>
