<?xml version="1.0" encoding="utf-8"?>
<!-- Generator: Adobe Illustrator 16.0.0, SVG Export Plug-In . SVG Version: 6.00 Build 0)  -->
<!DOCTYPE svg PUBLIC "-//W3C//DTD SVG 1.1//EN" "http://www.w3.org/Graphics/SVG/1.1/DTD/svg11.dtd">
<svg version="1.1" id="Layer_1" xmlns="http://www.w3.org/2000/svg" xmlns:xlink="http://www.w3.org/1999/xlink" x="0px" y="0px"
	 width="13px" height="13.006px" viewBox="0 0 13 13.006" enable-background="new 0 0 13 13.006" xml:space="preserve">
<g>
	<defs>
		<rect id="SVGID_1_" width="13" height="13.006"/>
	</defs>
	<clipPath id="SVGID_2_">
		<use xlink:href="#SVGID_1_"  overflow="visible"/>
	</clipPath>
	<path clip-path="url(#SVGID_2_)" fill="#CCCCCC" d="M10.453,4.051c-0.217,0.325-0.492,0.61-0.809,0.84
		c0.004,0.068,0.004,0.14,0.004,0.211c0,2.142-1.631,4.613-4.614,4.613c-0.917,0-1.769-0.267-2.487-0.729
		c0.127,0.016,0.256,0.023,0.387,0.023c0.761,0,1.459-0.259,2.015-0.693c-0.71-0.015-1.308-0.483-1.515-1.127
		c0.098,0.019,0.2,0.028,0.305,0.028c0.147,0,0.291-0.02,0.427-0.057C3.424,7.013,2.864,6.356,2.864,5.571
		c0-0.008,0-0.014,0.002-0.022C3.083,5.672,3.334,5.744,3.6,5.752c-0.435-0.29-0.722-0.787-0.722-1.35
		c0-0.297,0.081-0.575,0.219-0.815c0.8,0.981,1.996,1.627,3.343,1.695C6.412,5.163,6.399,5.04,6.399,4.912
		c0-0.895,0.726-1.622,1.621-1.622c0.469,0,0.89,0.197,1.185,0.513c0.37-0.072,0.718-0.207,1.03-0.395
		c-0.121,0.38-0.377,0.697-0.713,0.898C9.85,4.268,10.163,4.181,10.453,4.051 M13,10.433V2.573c0,0,0-2.574-2.574-2.574H2.574
		c0,0-2.574,0-2.574,2.574v7.859c0,0,0,2.573,2.574,2.573h7.852C10.426,13.006,13,13.006,13,10.433"/>
</g>
</svg>
