<?xml version="1.0" encoding="utf-8"?>
<!-- Generator: Adobe Illustrator 17.0.0, SVG Export Plug-In . SVG Version: 6.00 Build 0)  -->
<!DOCTYPE svg PUBLIC "-//W3C//DTD SVG 1.1//EN" "http://www.w3.org/Graphics/SVG/1.1/DTD/svg11.dtd">
<svg version="1.1" id="Layer_1" xmlns="http://www.w3.org/2000/svg" xmlns:xlink="http://www.w3.org/1999/xlink" x="0px" y="0px"
	 width="11.031px" height="11.031px" viewBox="0 0 11.031 11.031" enable-background="new 0 0 11.031 11.031" xml:space="preserve">
<g>
	<defs>
		<rect id="SVGID_1_" x="-717.289" y="-91.713" width="1280" height="2017.5"/>
	</defs>
	<clipPath id="SVGID_2_">
		<use xlink:href="#SVGID_1_"  overflow="visible"/>
	</clipPath>
	<path clip-path="url(#SVGID_2_)" fill="#88817E" d="M4.389,7.72c-1.84,0-3.322-1.483-3.322-3.325c0-1.841,1.482-3.325,3.322-3.325
		c1.84,0,3.322,1.484,3.322,3.325C7.711,6.237,6.229,7.72,4.389,7.72 M10.777,9.766L7.915,6.901
		c0.511-0.716,0.818-1.585,0.818-2.506c0-2.404-1.942-4.348-4.344-4.348c-2.402,0-4.344,1.944-4.344,4.348
		c0,2.404,1.942,4.348,4.344,4.348c0.92,0,1.789-0.307,2.504-0.818l2.862,2.864c0.255,0.256,0.715,0.256,1.022,0
		C11.084,10.482,11.084,10.073,10.777,9.766"/>
</g>
</svg>
